<?xml version="1.0" encoding="UTF-8" standalone="no" ?>
<!-- Created with Inkscape (http://www.inkscape.org/) -->
<svg xmlns:svg="http://www.w3.org/2000/svg" xmlns="http://www.w3.org/2000/svg" version="1.0" width="222" height="231">
  <rect width="4" height="2.4" x="184" y="89" style="opacity:1;fill:#F0082E;fill-opacity:1" />
  <rect width="8" height="5.6" x="149" y="168" style="opacity:1;fill:#F0082E;fill-opacity:1" />
  <rect width="4" height="2" x="32.92" y="230" transform="matrix(0.69212,-0.721782,0.721782,0.69212,0,0)" style="opacity:1;fill:#F0082E;fill-opacity:1" />
  <rect width="10" height="26" x="155" y="117" style="opacity:1;fill:#F0082E;fill-opacity:1" />
  <rect width="29" height="4" x="118" y="140" transform="matrix(0.959805,-0.280667,0.280667,0.959805,0,0)" style="opacity:1;fill:#F0082E;fill-opacity:1" />
  <rect width="19" height="10" x="19" y="139" transform="matrix(0.829137,-0.559046,0.559046,0.829137,0,0)" style="opacity:1;fill:#F0082E;fill-opacity:1" />
  <rect width="9" height="3" x="157" y="5" transform="matrix(0.766748,0.641948,-0.641948,0.766748,0,0)" style="opacity:1;fill:#F0082E;fill-opacity:1" />
  <rect width="9" height="3" x="135" y="70" style="opacity:1;fill:#000000;fill-opacity:1" />
  <path d="M 165.24446,37.996333 C 150.22882,20.645546 184.90963,3.2134142 177.23071,46.78815 C 177.23071,46.78815 165.24446,37.996333 165.24446,37.996333 z " style="fill:#FFC43D;fill-opacity:1" />
  <path d="M 165.26555,37.398515 C 150.25011,20.708793 184.93047,3.9408275 177.25166,45.855362 C 184.76469,4.0462543 150.28905,20.785201 165.26555,37.398515 z M 133.13147,37.479185 C 125.4848,27.521182 141.29083,17.708596 146.0534,32.048878 C 146.0534,32.048878 133.13147,37.479185 133.13147,37.479185 z M 134.30143,40.079954 C 138.49295,40.014947 141.89784,40.762126 144.28985,43.173922 C 142.54937,39.327725 138.32053,39.096633 134.30143,40.079954 z M 112.55497,51.275218 C 110.25384,49.443027 113.87853,44.517615 116.17768,45.780276 C 113.98765,45.807831 111.78647,48.999983 112.55497,51.275218 z M 99.541697,71.43217 C 99.058014,84.871399 109.66268,96.012079 122.31531,111.03497 C 124.78796,113.97083 162.86833,94.327539 162.86833,94.327539 C 162.59746,93.488519 183.15439,91.765963 183.24471,92.471157 C 183.3919,93.620179 183.84387,82.261248 185.64194,76.38252 C 188.40497,67.348835 178.64538,30.033905 166.99599,28.999315 C 147.99098,27.329211 140.50165,36.744813 121.31648,41.317542 C 114.74175,42.884609 109.95165,41.116344 108.13175,49.155594 C 106.6744,55.593332 116.22635,58.966769 111.43274,61.55752 C 105.04015,65.012451 99.621419,69.217282 99.541697,71.43217 z M 116.92156,89.170924 C 117.88175,91.550575 118.60378,93.59659 121.91578,95.152597 C 118.15523,93.941356 117.1627,91.807925 116.92156,89.170924 z M 135.95472,58.210408 C 135.58894,57.726631 141.48403,53.532441 142.25795,54.680536 C 141.18133,53.013095 135.35121,57.275698 135.95472,58.210408 z M 112.68838,58.918318 C 116.39197,58.854084 121.56768,59.088273 125.27128,60.195959 C 121.90233,59.063658 116.90396,58.30228 112.68838,58.918318 z M 120.35689,49.606349 C 122.41138,50.474705 121.82202,54.265618 121.74573,58.872258 C 121.89701,54.293429 122.43414,50.446074 120.35689,49.606349 z M 137.02305,56.445473 C 137.18086,54.446935 136.58914,51.232392 137.87772,51.040359 C 138.97629,50.818031 139.06818,55.011464 139.05292,55.011464 C 139.05292,55.011464 137.02305,56.335164 137.02305,56.445473 z M 116.83136,58.210408 C 116.39089,57.645317 116.73781,54.142717 117.79287,54.128995 C 119.41437,54.256472 118.83309,57.099588 118.96805,58.320716 L 116.83136,58.210408 z M 117.47237,58.210408 C 117.47237,57.989791 117.47237,54.680537 117.47237,54.680537 L 117.47237,58.210408 z M 118.11337,57.989791 C 118.11337,57.879481 118.11337,54.570229 118.11337,54.570229 L 118.11337,57.989791 z M 137.66407,55.342388 L 137.55724,51.591901 C 137.55724,51.591901 137.66407,55.563006 137.66407,55.342388 z M 106.6821,64.718606 C 104.96216,87.922648 131.50975,97.265886 138.73241,71.668039 C 131.43998,97.303858 104.95394,87.937615 106.6821,64.718606 z M 138.19824,51.591901 L 138.19824,55.011463 C 138.19824,55.011463 138.09141,51.702209 138.19824,51.591901 z M 141.99258,71.623317 C 140.26015,71.374235 138.73165,71.13713 136.47043,70.856986 C 136.69346,69.499789 142.36447,70.069705 141.99258,71.623317 z " style="fill:#FFC43D;fill-opacity:1;fill-rule:evenodd;stroke:black;stroke-width:1.0256815;stroke-linecap:round;stroke-linejoin:round;stroke-miterlimit:4;stroke-opacity:1" />
  <path d="M 165.52184,37.103278 C 151.40164,21.074607 184.0143,4.9707896 176.79331,45.225167 C 176.79331,45.225167 165.52184,37.103278 165.52184,37.103278 z " style="fill:#FFC43D;fill-opacity:1" />
  <path d="M 13.003839,135.7311 C 11.983499,151.25084 10.096919,167.71553 15.117789,170.13117 C 15.463579,168.54594 17.890169,141.69873 12.959859,135.67488 C 21.260719,124.48908 32.993199,132.90906 31.774719,145.8398 C 31.327139,150.09213 31.315829,150.07664 30.814299,152.999 L 31.874959,146.98859 C 36.400079,144.62387 47.292879,140.22003 54.148829,139.21042 C 52.216769,153.18548 60.321539,166.81752 61.219899,169.70439 C 23.802169,171.64092 18.566079,171.95528 15.117789,170.1615 C 15.470049,168.55439 17.904399,141.69199 13.003839,135.7311 z " style="fill:#FFC43D;fill-opacity:1;stroke:black;stroke-width:1px;stroke-linecap:round;stroke-linejoin:round;stroke-opacity:1" />
  <path d="M 153.16482,166.93532 C 122.12698,205.51935 69.870421,208.17229 54.122851,155.05029 C 47.949861,134.22666 68.979651,107.02952 101.66298,108.72912 C 126.01577,109.99551 139.43401,143.86607 153.16482,166.93532 z M 86.767881,110.00667 C 86.767881,110.00667 92.986336,102.38917 92.986336,102.38917 C 92.920029,103.94739 95.073812,108.40628 97.842881,108.66319 C 92.657131,108.78036 90.855901,109.1561 86.767881,110.00667 z " style="fill:#FFC43D;fill-opacity:1;stroke:black;stroke-width:1px;stroke-linecap:round;stroke-linejoin:round;stroke-opacity:1" />
  <path d="M 50.033773,186.85022 C 45.641173,193.09624 47.126853,219.19597 52.147723,221.61161 C 64.226643,214.72252 59.255873,182.82151 49.989793,186.91444 C 59.133723,179.1009 69.059623,182.58293 70.370353,191.29834 C 70.961623,199.20148 70.217063,205.08214 68.325983,210.74221 C 70.257933,205.11163 70.983883,199.23874 70.350153,191.36319 C 114.20734,144.44141 124.93927,182.8674 117.76808,191.79614 C 111.80742,199.21766 57.041263,231.38462 52.027283,221.5215 C 64.169153,214.69003 59.289063,182.80218 50.033773,186.85022 z " style="fill:#FFC43D;fill-opacity:1;stroke:black;stroke-width:1px;stroke-linecap:round;stroke-linejoin:round;stroke-opacity:1" />
  <path d="M 163.31529,142.62583 C 167.77927,159.93131 171.47456,179.01369 180.59961,184.81128 C 194.0659,193.36708 215.08344,177.31993 194.07551,171.33537 L 189.68119,134.71606 C 180.01781,141.28899 171.42126,143.06122 163.31529,142.62583 z M 190.65742,171.91808 L 194.03242,171.29308" style="fill:#FFC43D;fill-opacity:1;stroke:black;stroke-width:1px;stroke-linecap:round;stroke-linejoin:round;stroke-opacity:1" />
  <path d="M 148.00787,172.9303 L 157.83983,173.35229 L 167.82692,159.84267 L 163.62378,142.47223 C 163.62378,142.47223 165.80972,144.94262 174.03782,142.2761 C 182.26592,139.60958 195.0652,131.61004 195.0652,131.61004 C 185.98829,117.89654 187.32645,117.59179 191.10352,104.18303 C 183.72822,99.51029 188.60852,100.0182 191.10352,90.16479 L 183.24915,86.480381 L 182.71528,91.393242 C 175.5683,91.393242 170.41868,92.54723 163.79831,92.85198 C 150.79588,100.57218 137.97639,106.0115 124.97395,109.66845 C 118.26957,109.77519 113.00052,95.73797 104.77242,89.86004 C 104.77242,91.3202 93.69805,99.830121 93.49687,98.381841 C 93.2736,96.359041 92.77935,108.9686 92.77935,108.9686 C 132.78404,109.85607 136.30625,144.03128 157.84759,173.35229 L 148.00787,172.9303 z M 156.13103,115.81975 L 157.01491,123.95148 C 157.95702,126.38625 159.32889,127.10199 160.58078,128.29767 L 160.22722,141.0256 L 163.52533,142.45917 M 154.26319,103.98869 C 161.29581,99.21613 169.42208,95.62135 180.76319,95.48869 M 94.13818,106.61369 C 101.22148,104.77216 106.8082,100.44668 114.38818,107.4887 C 111.29584,104.40586 104.46253,103.30745 111.13818,96.48869 M 182.52279,91.381729 C 184.391,91.470309 187.79565,90.86283 188.59132,89.06787 M 189.88745,137.45877 L 195.01415,131.59968 M 117.42038,104.71822 C 120.02149,107.4237 122.48066,110.45835 125.47113,109.51474 C 120.95932,110.89973 116.33078,108.42307 117.42038,104.71822 z " style="fill:#F0082E;fill-opacity:1;fill-rule:evenodd;stroke:black;stroke-width:1px;stroke-linecap:butt;stroke-linejoin:round;stroke-opacity:1" />
  <path d="M 115.77921,64.547791 C 115.77921,67.736239 112.33999,70.323963 109.13614,70.323963 C 105.93231,70.323963 104.17111,67.979834 104.17111,64.791388 C 104.17111,61.359342 105.57273,59.384553 109.97516,59.380609 C 113.17899,59.377739 115.77921,60.743176 115.77921,64.547791 z " style="fill:black;fill-opacity:1" />
</svg>